<svg width="50" height="50" viewBox="0 0 50 50" fill="none" xmlns="http://www.w3.org/2000/svg">
<path d="M44.375 11.25C43.3395 11.25 42.5 10.4105 42.5 9.375V7.5H40.625C39.5895 7.5 38.75 6.66052 38.75 5.625C38.75 4.58948 39.5895 3.75 40.625 3.75H42.5V1.875C42.5 0.839475 43.3395 0 44.375 0C45.4105 0 46.25 0.839475 46.25 1.875V3.75H48.125C49.1605 3.75 50 4.58948 50 5.625C50 6.66052 49.1605 7.5 48.125 7.5H46.25V9.375C46.25 10.4105 45.4105 11.25 44.375 11.25ZM13.3253 3.55605C13.7031 1.73773 15.2941 2.71611e-07 17.5034 0.000200272C19.7119 0.000400272 21.3025 1.73728 21.6803 3.55552C22.0275 5.22848 22.9 7.74798 25.0763 9.9257C27.2515 12.1026 29.7703 12.9749 31.4433 13.3222C33.262 13.6998 35 15.2908 35 17.5002C35 19.7093 33.2625 21.3002 31.4442 21.678C29.7715 22.0257 27.2528 22.8987 25.076 25.0765C22.9003 27.2537 22.0282 29.7708 21.6812 31.4425C21.3035 33.2612 19.7124 35 17.5024 35C15.2939 35 13.7028 33.2635 13.3247 31.445C12.9768 29.7712 12.1037 27.2507 9.9271 25.0735C7.75023 22.8958 5.2315 22.024 3.55995 21.6772C1.74385 21.3003 0.00767529 19.7136 0.00372529 17.5075C-0.00022471 15.2949 1.73978 13.7001 3.56053 13.3221C5.23348 12.9747 7.7508 12.1023 9.92715 9.92542C12.1052 7.74683 12.9778 5.22822 13.3253 3.55605ZM18.75 41.875V37.3845C18.3519 37.4598 17.9356 37.5 17.5024 37.5C16.5893 37.5 15.7515 37.3215 15 37.0105V41.875C15 46.3623 18.6377 50 23.125 50H41.875C46.3623 50 50 46.3623 50 41.875V23.125C50 18.6377 46.3623 15 41.875 15H37.0115C37.3218 15.7509 37.5 16.5879 37.5 17.5002C37.5 17.9342 37.4598 18.3512 37.384 18.75H41.875C44.2912 18.75 46.25 20.7087 46.25 23.125V41.875C46.25 44.2912 44.2912 46.25 41.875 46.25H23.125C20.7087 46.25 18.75 44.2912 18.75 41.875ZM25 29.375C25 28.3395 25.8395 27.5 26.875 27.5H40.625C41.6605 27.5 42.5 28.3395 42.5 29.375C42.5 30.4105 41.6605 31.25 40.625 31.25H26.875C25.8395 31.25 25 30.4105 25 29.375ZM26.875 35C25.8395 35 25 35.8395 25 36.875C25 37.9105 25.8395 38.75 26.875 38.75H35.625C36.6605 38.75 37.5 37.9105 37.5 36.875C37.5 35.8395 36.6605 35 35.625 35H26.875ZM1.875 42.5C0.839475 42.5 0 43.3395 0 44.375C0 45.4105 0.839475 46.25 1.875 46.25H3.75V48.125C3.75 49.1605 4.58948 50 5.625 50C6.66052 50 7.5 49.1605 7.5 48.125V46.25H9.375C10.4105 46.25 11.25 45.4105 11.25 44.375C11.25 43.3395 10.4105 42.5 9.375 42.5H7.5V40.625C7.5 39.5895 6.66052 38.75 5.625 38.75C4.58948 38.75 3.75 39.5895 3.75 40.625V42.5H1.875Z" fill="white"/>
</svg>
