<svg width="1427" height="166" viewBox="0 0 1427 166" fill="none" xmlns="http://www.w3.org/2000/svg">
<path d="M389.664 150.976C390.656 150.976 391.563 151.221 392.384 151.712C393.216 152.192 393.872 152.848 394.352 153.68C394.832 154.512 395.072 155.419 395.072 156.4C395.072 157.371 394.832 158.277 394.352 159.12C393.872 159.952 393.216 160.619 392.384 161.12C391.552 161.611 390.635 161.856 389.632 161.856C388.64 161.856 387.728 161.611 386.896 161.12C386.075 160.629 385.424 159.968 384.944 159.136C384.475 158.304 384.24 157.403 384.24 156.432C384.24 155.461 384.48 154.56 384.96 153.728C385.44 152.885 386.091 152.219 386.912 151.728C387.744 151.227 388.661 150.976 389.664 150.976ZM389.664 152.576C388.96 152.576 388.315 152.752 387.728 153.104C387.141 153.445 386.677 153.915 386.336 154.512C386.005 155.099 385.84 155.739 385.84 156.432C385.84 157.125 386.005 157.765 386.336 158.352C386.677 158.928 387.136 159.392 387.712 159.744C388.288 160.085 388.928 160.256 389.632 160.256C390.347 160.256 390.997 160.085 391.584 159.744C392.171 159.392 392.629 158.923 392.96 158.336C393.301 157.739 393.472 157.093 393.472 156.4C393.472 155.707 393.301 155.072 392.96 154.496C392.629 153.909 392.171 153.445 391.584 153.104C391.008 152.752 390.368 152.576 389.664 152.576ZM390.944 155.92C390.795 155.707 390.613 155.541 390.4 155.424C390.197 155.296 390 155.232 389.808 155.232C389.499 155.232 389.243 155.344 389.04 155.568C388.848 155.781 388.752 156.053 388.752 156.384C388.752 156.725 388.848 157.008 389.04 157.232C389.243 157.445 389.499 157.552 389.808 157.552C389.989 157.552 390.181 157.499 390.384 157.392C390.587 157.285 390.773 157.147 390.944 156.976L391.904 158C391.627 158.309 391.291 158.555 390.896 158.736C390.501 158.917 390.107 159.008 389.712 159.008C389.2 159.008 388.741 158.896 388.336 158.672C387.931 158.448 387.611 158.139 387.376 157.744C387.152 157.349 387.04 156.907 387.04 156.416C387.04 155.925 387.157 155.488 387.392 155.104C387.627 154.709 387.952 154.4 388.368 154.176C388.784 153.952 389.253 153.84 389.776 153.84C390.16 153.84 390.544 153.925 390.928 154.096C391.323 154.267 391.648 154.491 391.904 154.768L390.944 155.92ZM408.532 159.152V162H399.748V159.664L403.652 155.6C403.897 155.344 404.094 155.088 404.244 154.832C404.404 154.576 404.484 154.357 404.484 154.176C404.484 153.984 404.42 153.84 404.292 153.744C404.164 153.637 403.977 153.584 403.732 153.584C403.316 153.584 402.841 153.712 402.308 153.968C401.774 154.224 401.23 154.576 400.676 155.024L399.3 152.352C401.006 151.189 402.676 150.608 404.308 150.608C405.076 150.608 405.769 150.736 406.388 150.992C407.006 151.248 407.492 151.605 407.844 152.064C408.196 152.523 408.372 153.045 408.372 153.632C408.372 154.24 408.18 154.853 407.796 155.472C407.412 156.091 406.873 156.747 406.18 157.44L404.452 159.152H408.532ZM415.319 150.672C416.812 150.672 417.953 151.168 418.743 152.16C419.543 153.141 419.943 154.549 419.943 156.384C419.943 158.229 419.543 159.648 418.743 160.64C417.943 161.621 416.801 162.112 415.319 162.112C413.825 162.112 412.679 161.621 411.879 160.64C411.089 159.648 410.695 158.229 410.695 156.384C410.695 154.539 411.089 153.125 411.879 152.144C412.679 151.163 413.825 150.672 415.319 150.672ZM415.319 153.376C415.084 153.376 414.908 153.472 414.791 153.664C414.673 153.845 414.588 154.149 414.535 154.576C414.492 154.992 414.471 155.595 414.471 156.384C414.471 157.173 414.492 157.781 414.535 158.208C414.588 158.635 414.673 158.944 414.791 159.136C414.908 159.317 415.084 159.408 415.319 159.408C415.553 159.408 415.729 159.317 415.847 159.136C415.964 158.944 416.044 158.635 416.087 158.208C416.14 157.781 416.167 157.173 416.167 156.384C416.167 155.595 416.14 154.992 416.087 154.576C416.044 154.149 415.964 153.845 415.847 153.664C415.729 153.472 415.553 153.376 415.319 153.376ZM430.938 159.152V162H422.154V159.664L426.058 155.6C426.303 155.344 426.501 155.088 426.65 154.832C426.81 154.576 426.89 154.357 426.89 154.176C426.89 153.984 426.826 153.84 426.698 153.744C426.57 153.637 426.383 153.584 426.138 153.584C425.722 153.584 425.247 153.712 424.714 153.968C424.181 154.224 423.637 154.576 423.082 155.024L421.706 152.352C423.413 151.189 425.082 150.608 426.714 150.608C427.482 150.608 428.175 150.736 428.794 150.992C429.413 151.248 429.898 151.605 430.25 152.064C430.602 152.523 430.778 153.045 430.778 153.632C430.778 154.24 430.586 154.853 430.202 155.472C429.818 156.091 429.279 156.747 428.586 157.44L426.858 159.152H430.938ZM437.789 154.816C438.685 154.816 439.469 154.955 440.141 155.232C440.824 155.509 441.346 155.904 441.709 156.416C442.082 156.928 442.269 157.52 442.269 158.192C442.269 158.981 442.072 159.68 441.677 160.288C441.293 160.885 440.738 161.349 440.013 161.68C439.298 162 438.461 162.16 437.501 162.16C436.712 162.16 435.896 162.027 435.053 161.76C434.21 161.493 433.474 161.136 432.845 160.688L434.173 158.144C435.208 159.008 436.173 159.44 437.069 159.44C437.464 159.44 437.762 159.36 437.965 159.2C438.168 159.029 438.269 158.784 438.269 158.464C438.269 157.835 437.864 157.52 437.053 157.52H433.885V150.784H441.741V153.632H437.277V154.816H437.789ZM455.443 155.168C455.113 154.709 454.713 154.341 454.243 154.064C453.785 153.776 453.337 153.632 452.899 153.632C452.462 153.632 452.062 153.749 451.699 153.984C451.347 154.208 451.07 154.523 450.867 154.928C450.675 155.333 450.579 155.792 450.579 156.304C450.579 156.816 450.675 157.28 450.867 157.696C451.07 158.101 451.347 158.421 451.699 158.656C452.062 158.891 452.462 159.008 452.899 159.008C453.305 159.008 453.737 158.891 454.195 158.656C454.665 158.411 455.081 158.091 455.443 157.696L457.587 159.984C456.958 160.677 456.201 161.232 455.315 161.648C454.441 162.053 453.571 162.256 452.707 162.256C451.577 162.256 450.558 162.005 449.651 161.504C448.755 160.992 448.051 160.288 447.539 159.392C447.027 158.485 446.771 157.472 446.771 156.352C446.771 155.243 447.033 154.251 447.555 153.376C448.078 152.491 448.798 151.797 449.715 151.296C450.643 150.795 451.689 150.544 452.851 150.544C453.705 150.544 454.563 150.736 455.427 151.12C456.291 151.493 457.011 151.995 457.587 152.624L455.443 155.168ZM462.575 153.12C463.567 153.12 464.436 153.307 465.183 153.68C465.929 154.043 466.505 154.565 466.911 155.248C467.316 155.92 467.519 156.709 467.519 157.616C467.519 158.523 467.316 159.317 466.911 160C466.505 160.672 465.929 161.195 465.183 161.568C464.436 161.941 463.567 162.128 462.575 162.128C461.583 162.128 460.713 161.941 459.967 161.568C459.22 161.195 458.644 160.672 458.239 160C457.833 159.317 457.631 158.523 457.631 157.616C457.631 156.709 457.833 155.92 458.239 155.248C458.644 154.565 459.22 154.043 459.967 153.68C460.713 153.307 461.583 153.12 462.575 153.12ZM462.575 155.968C462.18 155.968 461.86 156.123 461.615 156.432C461.38 156.741 461.263 157.152 461.263 157.664C461.263 158.176 461.38 158.587 461.615 158.896C461.86 159.205 462.18 159.36 462.575 159.36C462.969 159.36 463.284 159.205 463.519 158.896C463.764 158.587 463.887 158.176 463.887 157.664C463.887 157.152 463.764 156.741 463.519 156.432C463.284 156.123 462.969 155.968 462.575 155.968ZM474.55 153.12C475.35 153.12 476.054 153.307 476.662 153.68C477.27 154.053 477.739 154.587 478.07 155.28C478.4 155.963 478.566 156.763 478.566 157.68C478.566 158.576 478.406 159.36 478.086 160.032C477.766 160.704 477.307 161.221 476.71 161.584C476.123 161.947 475.435 162.128 474.646 162.128C474.176 162.128 473.744 162.043 473.35 161.872C472.955 161.691 472.614 161.435 472.326 161.104V165.104H468.726V153.248H472.326V154.128C472.902 153.456 473.643 153.12 474.55 153.12ZM473.622 159.28C474.016 159.28 474.331 159.125 474.566 158.816C474.811 158.507 474.934 158.096 474.934 157.584C474.934 157.072 474.811 156.661 474.566 156.352C474.331 156.043 474.016 155.888 473.622 155.888C473.227 155.888 472.912 156.043 472.678 156.352C472.443 156.661 472.326 157.072 472.326 157.584C472.326 158.096 472.443 158.507 472.678 158.816C472.912 159.125 473.227 159.28 473.622 159.28ZM485.122 162.608C484.759 163.515 484.263 164.181 483.634 164.608C483.005 165.045 482.221 165.264 481.282 165.264C480.706 165.264 480.173 165.179 479.682 165.008C479.202 164.848 478.727 164.592 478.258 164.24L479.762 161.872C480.135 162.213 480.525 162.384 480.93 162.384C481.335 162.384 481.623 162.235 481.794 161.936L481.922 161.728L478.29 153.248H481.986L483.714 158.24L485.138 153.248H488.722L485.122 162.608ZM493.043 154.528C493.352 154.069 493.731 153.717 494.179 153.472C494.637 153.216 495.149 153.088 495.715 153.088V156.336C495.48 156.304 495.251 156.288 495.027 156.288C494.408 156.288 493.923 156.427 493.571 156.704C493.219 156.971 493.043 157.344 493.043 157.824V162H489.443V153.248H493.043V154.528ZM496.755 153.248H500.355V162H496.755V153.248ZM498.515 148.928C499.048 148.928 499.486 149.099 499.827 149.44C500.168 149.781 500.339 150.219 500.339 150.752C500.339 151.285 500.168 151.723 499.827 152.064C499.486 152.405 499.048 152.576 498.515 152.576C497.982 152.576 497.544 152.405 497.203 152.064C496.862 151.723 496.691 151.285 496.691 150.752C496.691 150.219 496.862 149.781 497.203 149.44C497.544 149.099 497.982 148.928 498.515 148.928ZM510.85 153.248V161.28C510.85 162.08 510.642 162.779 510.226 163.376C509.821 163.984 509.245 164.448 508.498 164.768C507.762 165.099 506.914 165.264 505.954 165.264C505.154 165.264 504.386 165.157 503.65 164.944C502.925 164.731 502.317 164.459 501.826 164.128L502.962 161.712C503.336 161.947 503.768 162.133 504.258 162.272C504.749 162.411 505.208 162.48 505.634 162.48C506.157 162.48 506.557 162.379 506.834 162.176C507.122 161.984 507.266 161.717 507.266 161.376V160.544C506.712 161.163 505.981 161.472 505.074 161.472C504.392 161.472 503.773 161.301 503.218 160.96C502.674 160.608 502.248 160.112 501.938 159.472C501.629 158.832 501.474 158.091 501.474 157.248C501.474 156.427 501.624 155.707 501.922 155.088C502.221 154.459 502.637 153.973 503.17 153.632C503.714 153.291 504.328 153.12 505.01 153.12C505.949 153.12 506.701 153.435 507.266 154.064V153.248H510.85ZM506.05 158.912C506.413 158.912 506.706 158.768 506.93 158.48C507.154 158.192 507.266 157.813 507.266 157.344C507.266 156.864 507.154 156.48 506.93 156.192C506.717 155.904 506.424 155.76 506.05 155.76C505.677 155.76 505.378 155.904 505.154 156.192C504.941 156.48 504.834 156.864 504.834 157.344C504.834 157.813 504.946 158.192 505.17 158.48C505.394 158.768 505.688 158.912 506.05 158.912ZM518.919 153.088C519.527 153.088 520.066 153.227 520.535 153.504C521.015 153.781 521.388 154.171 521.655 154.672C521.922 155.173 522.055 155.755 522.055 156.416V162H518.455V157.456C518.455 157.093 518.359 156.805 518.167 156.592C517.975 156.368 517.724 156.256 517.415 156.256C517.063 156.256 516.78 156.384 516.567 156.64C516.364 156.896 516.263 157.237 516.263 157.664V162H512.663V150.128H516.263V154.496C516.562 154.037 516.935 153.691 517.383 153.456C517.842 153.211 518.354 153.088 518.919 153.088ZM529.808 161.616C529.52 161.787 529.141 161.92 528.672 162.016C528.213 162.112 527.744 162.16 527.264 162.16C526.282 162.16 525.493 161.893 524.896 161.36C524.309 160.816 524.016 160.091 524.016 159.184V156H522.816V153.728H524.016V151.28H527.6V153.728H529.648V156H527.6V158.64C527.6 158.875 527.664 159.061 527.792 159.2C527.92 159.328 528.09 159.387 528.304 159.376C528.506 159.376 528.805 159.301 529.2 159.152L529.808 161.616ZM532.159 154.096C532.65 154.096 533.044 154.251 533.343 154.56C533.652 154.859 533.807 155.248 533.807 155.728C533.807 156.219 533.652 156.619 533.343 156.928C533.044 157.227 532.65 157.376 532.159 157.376C531.679 157.376 531.284 157.227 530.975 156.928C530.676 156.619 530.527 156.219 530.527 155.728C530.527 155.248 530.676 154.859 530.975 154.56C531.284 154.251 531.679 154.096 532.159 154.096ZM532.159 158.848C532.65 158.848 533.044 159.003 533.343 159.312C533.652 159.611 533.807 160 533.807 160.48C533.807 160.971 533.652 161.371 533.343 161.68C533.044 161.979 532.65 162.128 532.159 162.128C531.679 162.128 531.284 161.979 530.975 161.68C530.676 161.371 530.527 160.971 530.527 160.48C530.527 160 530.676 159.611 530.975 159.312C531.284 159.003 531.679 158.848 532.159 158.848ZM549.852 162H545.42L543.052 158.096L541.996 159.28V162H538.284V150.784H541.996V154.88L545.34 150.784H549.612L545.596 155.264L549.852 162ZM550.659 150.784H560.147V153.6H554.371V154.976H559.619V157.792H554.371V159.184H560.291V162H550.659V150.784ZM569.242 150.784H572.602V162H569.498L565.082 156.272V162H561.706V150.784H564.81L569.242 156.544V150.784ZM582.606 154.672C581.998 154.32 581.321 154.011 580.574 153.744C579.828 153.477 579.22 153.344 578.75 153.344C578.292 153.344 578.062 153.509 578.062 153.84C578.062 154.096 578.206 154.293 578.494 154.432C578.793 154.571 579.262 154.725 579.902 154.896C580.702 155.12 581.364 155.344 581.886 155.568C582.42 155.792 582.884 156.149 583.278 156.64C583.673 157.12 583.87 157.755 583.87 158.544C583.87 159.355 583.657 160.037 583.23 160.592C582.814 161.136 582.249 161.541 581.534 161.808C580.82 162.075 580.025 162.208 579.15 162.208C578.158 162.208 577.156 162.048 576.142 161.728C575.14 161.397 574.27 160.949 573.534 160.384L574.91 157.584C575.476 158.075 576.185 158.496 577.038 158.848C577.892 159.189 578.606 159.36 579.182 159.36C579.46 159.36 579.678 159.312 579.838 159.216C579.998 159.109 580.078 158.949 580.078 158.736C580.078 158.48 579.924 158.283 579.614 158.144C579.316 157.995 578.841 157.84 578.19 157.68C577.401 157.477 576.74 157.269 576.206 157.056C575.684 156.832 575.23 156.491 574.846 156.032C574.462 155.573 574.27 154.96 574.27 154.192C574.27 153.445 574.468 152.795 574.862 152.24C575.257 151.675 575.817 151.243 576.542 150.944C577.268 150.645 578.11 150.496 579.07 150.496C579.945 150.496 580.814 150.619 581.678 150.864C582.553 151.109 583.31 151.435 583.95 151.84L582.606 154.672ZM598.735 150.784H602.527L598.735 162H594.927L593.247 155.296L591.519 162H587.711L583.951 150.784H587.919L589.727 158.144L591.519 150.784H595.135L596.959 158.144L598.735 150.784ZM603.253 150.784H612.741V153.6H606.965V154.976H612.213V157.792H606.965V159.184H612.885V162H603.253V150.784ZM619.308 150.784C620.535 150.784 621.607 151.013 622.524 151.472C623.441 151.931 624.151 152.587 624.652 153.44C625.153 154.283 625.404 155.264 625.404 156.384C625.404 157.515 625.148 158.501 624.636 159.344C624.124 160.187 623.393 160.843 622.444 161.312C621.505 161.771 620.412 162 619.164 162H614.3V150.784H619.308ZM619.404 159.12C620.076 159.12 620.609 158.875 621.004 158.384C621.409 157.893 621.612 157.237 621.612 156.416C621.612 155.584 621.393 154.917 620.956 154.416C620.529 153.915 619.953 153.664 619.228 153.664H618.012V159.12H619.404ZM637.756 155.168C637.425 154.709 637.025 154.341 636.556 154.064C636.097 153.776 635.649 153.632 635.212 153.632C634.774 153.632 634.374 153.749 634.012 153.984C633.66 154.208 633.382 154.523 633.18 154.928C632.988 155.333 632.892 155.792 632.892 156.304C632.892 156.816 632.988 157.28 633.18 157.696C633.382 158.101 633.66 158.421 634.012 158.656C634.374 158.891 634.774 159.008 635.212 159.008C635.617 159.008 636.049 158.891 636.508 158.656C636.977 158.411 637.393 158.091 637.756 157.696L639.9 159.984C639.27 160.677 638.513 161.232 637.628 161.648C636.753 162.053 635.884 162.256 635.02 162.256C633.889 162.256 632.87 162.005 631.964 161.504C631.068 160.992 630.364 160.288 629.852 159.392C629.34 158.485 629.084 157.472 629.084 156.352C629.084 155.243 629.345 154.251 629.868 153.376C630.39 152.491 631.11 151.797 632.028 151.296C632.956 150.795 634.001 150.544 635.164 150.544C636.017 150.544 636.876 150.736 637.74 151.12C638.604 151.493 639.324 151.995 639.9 152.624L637.756 155.168ZM646.103 150.544C647.276 150.544 648.332 150.795 649.271 151.296C650.21 151.797 650.94 152.491 651.463 153.376C651.996 154.261 652.263 155.259 652.263 156.368C652.263 157.488 651.996 158.496 651.463 159.392C650.94 160.288 650.21 160.992 649.271 161.504C648.332 162.005 647.276 162.256 646.103 162.256C644.93 162.256 643.874 162.005 642.935 161.504C641.996 160.992 641.26 160.288 640.727 159.392C640.204 158.496 639.943 157.488 639.943 156.368C639.943 155.248 640.204 154.245 640.727 153.36C641.26 152.475 641.996 151.787 642.935 151.296C643.874 150.795 644.93 150.544 646.103 150.544ZM646.151 153.632C645.724 153.632 645.324 153.755 644.951 154C644.588 154.235 644.295 154.56 644.071 154.976C643.858 155.392 643.751 155.861 643.751 156.384C643.751 156.907 643.858 157.381 644.071 157.808C644.295 158.224 644.588 158.555 644.951 158.8C645.324 159.045 645.724 159.168 646.151 159.168C646.578 159.168 646.967 159.051 647.319 158.816C647.671 158.571 647.948 158.235 648.151 157.808C648.354 157.381 648.455 156.907 648.455 156.384C648.455 155.861 648.354 155.392 648.151 154.976C647.948 154.549 647.671 154.219 647.319 153.984C646.967 153.749 646.578 153.632 646.151 153.632ZM653.3 150.784H657.012V158.912H661.684V162H653.3V150.784ZM662.644 150.784H666.356V158.912H671.028V162H662.644V150.784ZM671.988 150.784H681.476V153.6H675.7V154.976H680.948V157.792H675.7V159.184H681.62V162H671.988V150.784ZM688.778 155.536H693.642V160.784C693.013 161.211 692.208 161.563 691.226 161.84C690.245 162.117 689.354 162.256 688.554 162.256C687.392 162.256 686.346 162.005 685.418 161.504C684.501 160.992 683.781 160.293 683.258 159.408C682.736 158.512 682.474 157.504 682.474 156.384C682.474 155.275 682.746 154.277 683.29 153.392C683.834 152.496 684.586 151.797 685.546 151.296C686.506 150.795 687.589 150.544 688.794 150.544C689.669 150.544 690.517 150.704 691.338 151.024C692.16 151.344 692.869 151.771 693.466 152.304L691.37 154.848C690.997 154.475 690.586 154.181 690.138 153.968C689.69 153.744 689.237 153.632 688.778 153.632C688.309 153.632 687.882 153.755 687.498 154C687.114 154.235 686.816 154.56 686.602 154.976C686.389 155.392 686.282 155.861 686.282 156.384C686.282 156.917 686.389 157.397 686.602 157.824C686.826 158.24 687.13 158.571 687.514 158.816C687.898 159.051 688.33 159.168 688.81 159.168C689.216 159.168 689.706 159.04 690.282 158.784V158.096H688.778V155.536ZM694.847 150.784H704.335V153.6H698.559V154.976H703.807V157.792H698.559V159.184H704.479V162H694.847V150.784ZM709.577 149.264H712.233V163.648H709.577V149.264ZM722.527 150.784C723.753 150.784 724.825 151.013 725.743 151.472C726.66 151.931 727.369 152.587 727.871 153.44C728.372 154.283 728.623 155.264 728.623 156.384C728.623 157.515 728.367 158.501 727.855 159.344C727.343 160.187 726.612 160.843 725.663 161.312C724.724 161.771 723.631 162 722.383 162H717.519V150.784H722.527ZM722.623 159.12C723.295 159.12 723.828 158.875 724.223 158.384C724.628 157.893 724.831 157.237 724.831 156.416C724.831 155.584 724.612 154.917 724.175 154.416C723.748 153.915 723.172 153.664 722.447 153.664H721.231V159.12H722.623ZM733.771 153.12C734.731 153.12 735.563 153.317 736.267 153.712C736.971 154.107 737.51 154.672 737.883 155.408C738.257 156.133 738.443 156.987 738.443 157.968C738.443 158.171 738.438 158.325 738.427 158.432H732.731C732.849 158.773 733.03 159.035 733.275 159.216C733.531 159.387 733.835 159.472 734.187 159.472C734.817 159.472 735.409 159.211 735.963 158.688L737.835 160.528C737.366 161.051 736.795 161.451 736.123 161.728C735.462 161.995 734.71 162.128 733.867 162.128C732.886 162.128 732.033 161.947 731.307 161.584C730.593 161.211 730.043 160.688 729.659 160.016C729.286 159.344 729.099 158.56 729.099 157.664C729.099 156.747 729.291 155.947 729.675 155.264C730.059 154.581 730.603 154.053 731.307 153.68C732.022 153.307 732.843 153.12 733.771 153.12ZM734.827 156.768C734.849 156.405 734.758 156.107 734.555 155.872C734.363 155.637 734.113 155.52 733.803 155.52C733.505 155.52 733.254 155.632 733.051 155.856C732.859 156.08 732.726 156.384 732.651 156.768H734.827ZM738.293 153.248H741.989L743.381 158.736L744.805 153.248H748.405L745.173 162H741.493L738.293 153.248ZM752.928 153.12C753.888 153.12 754.72 153.317 755.424 153.712C756.128 154.107 756.666 154.672 757.04 155.408C757.413 156.133 757.6 156.987 757.6 157.968C757.6 158.171 757.594 158.325 757.584 158.432H751.888C752.005 158.773 752.186 159.035 752.432 159.216C752.688 159.387 752.992 159.472 753.344 159.472C753.973 159.472 754.565 159.211 755.12 158.688L756.992 160.528C756.522 161.051 755.952 161.451 755.28 161.728C754.618 161.995 753.866 162.128 753.024 162.128C752.042 162.128 751.189 161.947 750.464 161.584C749.749 161.211 749.2 160.688 748.816 160.016C748.442 159.344 748.256 158.56 748.256 157.664C748.256 156.747 748.448 155.947 748.832 155.264C749.216 154.581 749.76 154.053 750.464 153.68C751.178 153.307 752 153.12 752.928 153.12ZM753.984 156.768C754.005 156.405 753.914 156.107 753.712 155.872C753.52 155.637 753.269 155.52 752.96 155.52C752.661 155.52 752.41 155.632 752.208 155.856C752.016 156.08 751.882 156.384 751.808 156.768H753.984ZM758.804 150.128H762.404V162H758.804V150.128ZM768.543 153.12C769.535 153.12 770.405 153.307 771.151 153.68C771.898 154.043 772.474 154.565 772.879 155.248C773.285 155.92 773.487 156.709 773.487 157.616C773.487 158.523 773.285 159.317 772.879 160C772.474 160.672 771.898 161.195 771.151 161.568C770.405 161.941 769.535 162.128 768.543 162.128C767.551 162.128 766.682 161.941 765.935 161.568C765.189 161.195 764.613 160.672 764.207 160C763.802 159.317 763.599 158.523 763.599 157.616C763.599 156.709 763.802 155.92 764.207 155.248C764.613 154.565 765.189 154.043 765.935 153.68C766.682 153.307 767.551 153.12 768.543 153.12ZM768.543 155.968C768.149 155.968 767.829 156.123 767.583 156.432C767.349 156.741 767.231 157.152 767.231 157.664C767.231 158.176 767.349 158.587 767.583 158.896C767.829 159.205 768.149 159.36 768.543 159.36C768.938 159.36 769.253 159.205 769.487 158.896C769.733 158.587 769.855 158.176 769.855 157.664C769.855 157.152 769.733 156.741 769.487 156.432C769.253 156.123 768.938 155.968 768.543 155.968ZM780.518 153.12C781.318 153.12 782.022 153.307 782.63 153.68C783.238 154.053 783.708 154.587 784.038 155.28C784.369 155.963 784.534 156.763 784.534 157.68C784.534 158.576 784.374 159.36 784.054 160.032C783.734 160.704 783.276 161.221 782.678 161.584C782.092 161.947 781.404 162.128 780.614 162.128C780.145 162.128 779.713 162.043 779.318 161.872C778.924 161.691 778.582 161.435 778.294 161.104V165.104H774.694V153.248H778.294V154.128C778.87 153.456 779.612 153.12 780.518 153.12ZM779.59 159.28C779.985 159.28 780.3 159.125 780.534 158.816C780.78 158.507 780.902 158.096 780.902 157.584C780.902 157.072 780.78 156.661 780.534 156.352C780.3 156.043 779.985 155.888 779.59 155.888C779.196 155.888 778.881 156.043 778.646 156.352C778.412 156.661 778.294 157.072 778.294 157.584C778.294 158.096 778.412 158.507 778.646 158.816C778.881 159.125 779.196 159.28 779.59 159.28ZM789.693 153.12C790.653 153.12 791.485 153.317 792.189 153.712C792.893 154.107 793.432 154.672 793.805 155.408C794.179 156.133 794.365 156.987 794.365 157.968C794.365 158.171 794.36 158.325 794.349 158.432H788.653C788.771 158.773 788.952 159.035 789.197 159.216C789.453 159.387 789.757 159.472 790.109 159.472C790.739 159.472 791.331 159.211 791.885 158.688L793.757 160.528C793.288 161.051 792.717 161.451 792.045 161.728C791.384 161.995 790.632 162.128 789.789 162.128C788.808 162.128 787.955 161.947 787.229 161.584C786.515 161.211 785.965 160.688 785.581 160.016C785.208 159.344 785.021 158.56 785.021 157.664C785.021 156.747 785.213 155.947 785.597 155.264C785.981 154.581 786.525 154.053 787.229 153.68C787.944 153.307 788.765 153.12 789.693 153.12ZM790.749 156.768C790.771 156.405 790.68 156.107 790.477 155.872C790.285 155.637 790.035 155.52 789.725 155.52C789.427 155.52 789.176 155.632 788.973 155.856C788.781 156.08 788.648 156.384 788.573 156.768H790.749ZM804.689 150.128V162H801.089V161.12C800.513 161.792 799.772 162.128 798.865 162.128C798.065 162.128 797.361 161.941 796.753 161.568C796.145 161.195 795.676 160.667 795.345 159.984C795.015 159.291 794.849 158.485 794.849 157.568C794.849 156.672 795.009 155.888 795.329 155.216C795.649 154.544 796.103 154.027 796.689 153.664C797.287 153.301 797.98 153.12 798.769 153.12C799.239 153.12 799.671 153.211 800.065 153.392C800.46 153.563 800.801 153.813 801.089 154.144V150.128H804.689ZM799.793 159.36C800.188 159.36 800.503 159.205 800.737 158.896C800.972 158.587 801.089 158.176 801.089 157.664C801.089 157.152 800.972 156.741 800.737 156.432C800.503 156.123 800.188 155.968 799.793 155.968C799.399 155.968 799.079 156.123 798.833 156.432C798.599 156.741 798.481 157.152 798.481 157.664C798.481 158.176 798.599 158.587 798.833 158.896C799.079 159.205 799.399 159.36 799.793 159.36ZM815.339 150.784C816.235 150.784 817.019 150.901 817.691 151.136C818.363 151.371 818.881 151.701 819.243 152.128C819.606 152.555 819.787 153.051 819.787 153.616C819.787 154.171 819.617 154.667 819.275 155.104C818.934 155.541 818.475 155.845 817.899 156.016C818.571 156.165 819.11 156.501 819.515 157.024C819.921 157.536 820.123 158.144 820.123 158.848C820.123 159.477 819.937 160.032 819.563 160.512C819.19 160.992 818.662 161.36 817.979 161.616C817.307 161.872 816.518 162 815.611 162H809.659V150.784H815.339ZM815.131 155.104C815.387 155.104 815.59 155.029 815.739 154.88C815.899 154.731 815.979 154.533 815.979 154.288C815.979 154.053 815.899 153.867 815.739 153.728C815.59 153.579 815.387 153.504 815.131 153.504H813.355V155.104H815.131ZM815.131 159.28C815.473 159.28 815.745 159.2 815.947 159.04C816.161 158.869 816.267 158.651 816.267 158.384C816.267 158.139 816.161 157.941 815.947 157.792C815.745 157.643 815.473 157.568 815.131 157.568H813.355V159.28H815.131ZM826.982 162.608C826.619 163.515 826.123 164.181 825.494 164.608C824.864 165.045 824.08 165.264 823.142 165.264C822.566 165.264 822.032 165.179 821.542 165.008C821.062 164.848 820.587 164.592 820.117 164.24L821.622 161.872C821.995 162.213 822.384 162.384 822.789 162.384C823.195 162.384 823.483 162.235 823.654 161.936L823.782 161.728L820.149 153.248H823.846L825.574 158.24L826.998 153.248H830.582L826.982 162.608ZM846.665 163.584C846.238 163.957 845.705 164.256 845.065 164.48C844.436 164.715 843.828 164.832 843.241 164.832C842.42 164.832 841.689 164.597 841.049 164.128C840.409 163.669 839.934 163.04 839.625 162.24C838.516 162.187 837.524 161.899 836.649 161.376C835.774 160.853 835.092 160.16 834.601 159.296C834.11 158.421 833.865 157.445 833.865 156.368C833.865 155.248 834.126 154.245 834.649 153.36C835.182 152.475 835.918 151.787 836.857 151.296C837.796 150.795 838.852 150.544 840.025 150.544C841.198 150.544 842.254 150.795 843.193 151.296C844.132 151.797 844.862 152.491 845.385 153.376C845.918 154.261 846.185 155.259 846.185 156.368C846.185 157.573 845.876 158.651 845.257 159.6C844.649 160.539 843.817 161.237 842.761 161.696C843.017 162.005 843.31 162.16 843.641 162.16C843.865 162.16 844.137 162.091 844.457 161.952C844.788 161.813 845.113 161.627 845.433 161.392L846.665 163.584ZM837.673 156.384C837.673 156.907 837.78 157.381 837.993 157.808C838.217 158.224 838.51 158.555 838.873 158.8C839.246 159.045 839.646 159.168 840.073 159.168C840.5 159.168 840.889 159.051 841.241 158.816C841.593 158.571 841.87 158.235 842.073 157.808C842.276 157.381 842.377 156.907 842.377 156.384C842.377 155.861 842.276 155.392 842.073 154.976C841.87 154.549 841.593 154.219 841.241 153.984C840.889 153.749 840.5 153.632 840.073 153.632C839.646 153.632 839.246 153.755 838.873 154C838.51 154.235 838.217 154.56 837.993 154.976C837.78 155.392 837.673 155.861 837.673 156.384ZM856.31 153.248V162H852.71V160.784C852.422 161.232 852.059 161.573 851.622 161.808C851.184 162.043 850.688 162.16 850.134 162.16C849.536 162.16 849.008 162.021 848.549 161.744C848.091 161.467 847.728 161.077 847.462 160.576C847.206 160.075 847.078 159.493 847.078 158.832V153.248H850.678V157.792C850.678 158.155 850.763 158.448 850.934 158.672C851.115 158.885 851.35 158.992 851.638 158.992C851.968 158.992 852.23 158.864 852.422 158.608C852.614 158.352 852.71 158.011 852.71 157.584V153.248H856.31ZM858.068 153.248H861.668V162H858.068V153.248ZM859.828 148.928C860.361 148.928 860.798 149.099 861.14 149.44C861.481 149.781 861.652 150.219 861.652 150.752C861.652 151.285 861.481 151.723 861.14 152.064C860.798 152.405 860.361 152.576 859.828 152.576C859.294 152.576 858.857 152.405 858.516 152.064C858.174 151.723 858.004 151.285 858.004 150.752C858.004 150.219 858.174 149.781 858.516 149.44C858.857 149.099 859.294 148.928 859.828 148.928ZM868.691 156.864C868.456 156.309 868.083 156.032 867.571 156.032C867.219 156.032 866.936 156.181 866.723 156.48C866.52 156.768 866.419 157.157 866.419 157.648C866.419 158.149 866.52 158.549 866.723 158.848C866.936 159.136 867.219 159.28 867.571 159.28C868.104 159.28 868.462 158.965 868.643 158.336L871.555 159.68C871.235 160.459 870.707 161.061 869.971 161.488C869.246 161.915 868.382 162.128 867.379 162.128C866.462 162.128 865.656 161.947 864.963 161.584C864.27 161.211 863.731 160.688 863.347 160.016C862.974 159.344 862.787 158.56 862.787 157.664C862.787 156.757 862.974 155.963 863.347 155.28C863.731 154.587 864.27 154.053 864.963 153.68C865.667 153.307 866.483 153.12 867.411 153.12C868.36 153.12 869.198 153.344 869.923 153.792C870.648 154.229 871.192 154.848 871.555 155.648L868.691 156.864ZM882.172 153.248L878.988 156.624L882.124 162H877.852L876.508 159.248L876.076 159.696V162H872.476V150.128H876.076V155.52L878.108 153.248H882.172ZM890.497 153.12C891.489 153.12 892.358 153.307 893.105 153.68C893.851 154.043 894.427 154.565 894.833 155.248C895.238 155.92 895.441 156.709 895.441 157.616C895.441 158.523 895.238 159.317 894.833 160C894.427 160.672 893.851 161.195 893.105 161.568C892.358 161.941 891.489 162.128 890.497 162.128C889.505 162.128 888.635 161.941 887.889 161.568C887.142 161.195 886.566 160.672 886.161 160C885.755 159.317 885.553 158.523 885.553 157.616C885.553 156.709 885.755 155.92 886.161 155.248C886.566 154.565 887.142 154.043 887.889 153.68C888.635 153.307 889.505 153.12 890.497 153.12ZM890.497 155.968C890.102 155.968 889.782 156.123 889.536 156.432C889.302 156.741 889.185 157.152 889.185 157.664C889.185 158.176 889.302 158.587 889.536 158.896C889.782 159.205 890.102 159.36 890.497 159.36C890.891 159.36 891.206 159.205 891.441 158.896C891.686 158.587 891.809 158.176 891.809 157.664C891.809 157.152 891.686 156.741 891.441 156.432C891.206 156.123 890.891 155.968 890.497 155.968ZM901.419 152.752C901.185 152.752 900.993 152.821 900.843 152.96C900.705 153.088 900.635 153.264 900.635 153.488V153.728H902.331V156H900.635V162H897.051V156H895.851V153.728H897.051V152.944C897.051 152.037 897.377 151.317 898.027 150.784C898.678 150.24 899.547 149.968 900.635 149.968C901.35 149.968 902.043 150.069 902.715 150.272L902.363 152.928C901.937 152.811 901.622 152.752 901.419 152.752ZM908.232 152.752C907.997 152.752 907.805 152.821 907.656 152.96C907.517 153.088 907.448 153.264 907.448 153.488V153.728H909.144V156H907.448V162H903.864V156H902.664V153.728H903.864V152.944C903.864 152.037 904.189 151.317 904.84 150.784C905.49 150.24 906.36 149.968 907.448 149.968C908.162 149.968 908.856 150.069 909.528 150.272L909.176 152.928C908.749 152.811 908.434 152.752 908.232 152.752ZM910.04 153.248H913.64V162H910.04V153.248ZM911.8 148.928C912.333 148.928 912.77 149.099 913.112 149.44C913.453 149.781 913.624 150.219 913.624 150.752C913.624 151.285 913.453 151.723 913.112 152.064C912.77 152.405 912.333 152.576 911.8 152.576C911.266 152.576 910.829 152.405 910.488 152.064C910.146 151.723 909.976 151.285 909.976 150.752C909.976 150.219 910.146 149.781 910.488 149.44C910.829 149.099 911.266 148.928 911.8 148.928ZM920.66 156.864C920.425 156.309 920.052 156.032 919.54 156.032C919.188 156.032 918.905 156.181 918.692 156.48C918.489 156.768 918.388 157.157 918.388 157.648C918.388 158.149 918.489 158.549 918.692 158.848C918.905 159.136 919.188 159.28 919.54 159.28C920.073 159.28 920.43 158.965 920.612 158.336L923.524 159.68C923.204 160.459 922.676 161.061 921.94 161.488C921.214 161.915 920.35 162.128 919.348 162.128C918.43 162.128 917.625 161.947 916.932 161.584C916.238 161.211 915.7 160.688 915.316 160.016C914.942 159.344 914.756 158.56 914.756 157.664C914.756 156.757 914.942 155.963 915.316 155.28C915.7 154.587 916.238 154.053 916.932 153.68C917.636 153.307 918.452 153.12 919.38 153.12C920.329 153.12 921.166 153.344 921.892 153.792C922.617 154.229 923.161 154.848 923.524 155.648L920.66 156.864ZM928.24 153.12C929.2 153.12 930.032 153.317 930.736 153.712C931.44 154.107 931.979 154.672 932.352 155.408C932.725 156.133 932.912 156.987 932.912 157.968C932.912 158.171 932.907 158.325 932.896 158.432H927.2C927.317 158.773 927.499 159.035 927.744 159.216C928 159.387 928.304 159.472 928.656 159.472C929.285 159.472 929.877 159.211 930.432 158.688L932.304 160.528C931.835 161.051 931.264 161.451 930.592 161.728C929.931 161.995 929.179 162.128 928.336 162.128C927.355 162.128 926.501 161.947 925.776 161.584C925.061 161.211 924.512 160.688 924.128 160.016C923.755 159.344 923.568 158.56 923.568 157.664C923.568 156.747 923.76 155.947 924.144 155.264C924.528 154.581 925.072 154.053 925.776 153.68C926.491 153.307 927.312 153.12 928.24 153.12ZM929.296 156.768C929.317 156.405 929.227 156.107 929.024 155.872C928.832 155.637 928.581 155.52 928.272 155.52C927.973 155.52 927.723 155.632 927.52 155.856C927.328 156.08 927.195 156.384 927.12 156.768H929.296ZM942.423 150.784C943.885 150.784 945.015 151.136 945.815 151.84C946.615 152.533 947.015 153.52 947.015 154.8C947.015 156.155 946.615 157.211 945.815 157.968C945.015 158.715 943.885 159.088 942.423 159.088H940.871V162H937.159V150.784H942.423ZM942.231 156.272C942.637 156.272 942.946 156.155 943.159 155.92C943.383 155.675 943.495 155.339 943.495 154.912C943.495 154.496 943.383 154.176 943.159 153.952C942.946 153.717 942.637 153.6 942.231 153.6H940.871V156.272H942.231ZM952.512 153.12C953.504 153.12 954.373 153.307 955.12 153.68C955.867 154.043 956.443 154.565 956.848 155.248C957.253 155.92 957.456 156.709 957.456 157.616C957.456 158.523 957.253 159.317 956.848 160C956.443 160.672 955.867 161.195 955.12 161.568C954.373 161.941 953.504 162.128 952.512 162.128C951.52 162.128 950.651 161.941 949.904 161.568C949.157 161.195 948.581 160.672 948.176 160C947.771 159.317 947.568 158.523 947.568 157.616C947.568 156.709 947.771 155.92 948.176 155.248C948.581 154.565 949.157 154.043 949.904 153.68C950.651 153.307 951.52 153.12 952.512 153.12ZM952.512 155.968C952.117 155.968 951.797 156.123 951.552 156.432C951.317 156.741 951.2 157.152 951.2 157.664C951.2 158.176 951.317 158.587 951.552 158.896C951.797 159.205 952.117 159.36 952.512 159.36C952.907 159.36 953.221 159.205 953.456 158.896C953.701 158.587 953.824 158.176 953.824 157.664C953.824 157.152 953.701 156.741 953.456 156.432C953.221 156.123 952.907 155.968 952.512 155.968ZM958.583 153.248H962.183V162H958.583V153.248ZM960.343 148.928C960.876 148.928 961.314 149.099 961.655 149.44C961.996 149.781 962.167 150.219 962.167 150.752C962.167 151.285 961.996 151.723 961.655 152.064C961.314 152.405 960.876 152.576 960.343 152.576C959.81 152.576 959.372 152.405 959.031 152.064C958.69 151.723 958.519 151.285 958.519 150.752C958.519 150.219 958.69 149.781 959.031 149.44C959.372 149.099 959.81 148.928 960.343 148.928ZM970.199 153.088C970.807 153.088 971.345 153.227 971.815 153.504C972.295 153.781 972.668 154.171 972.935 154.672C973.201 155.173 973.335 155.755 973.335 156.416V162H969.735V157.456C969.735 157.093 969.639 156.805 969.447 156.592C969.255 156.368 969.004 156.256 968.695 156.256C968.343 156.256 968.06 156.384 967.847 156.64C967.644 156.896 967.543 157.237 967.543 157.664V162H963.943V153.248H967.543V154.496C967.841 154.037 968.215 153.691 968.663 153.456C969.121 153.211 969.633 153.088 970.199 153.088ZM981.089 161.616C980.801 161.787 980.422 161.92 979.953 162.016C979.494 162.112 979.025 162.16 978.545 162.16C977.563 162.16 976.774 161.893 976.177 161.36C975.59 160.816 975.297 160.091 975.297 159.184V156H974.097V153.728H975.297V151.28H978.881V153.728H980.929V156H978.881V158.64C978.881 158.875 978.945 159.061 979.073 159.2C979.201 159.328 979.371 159.387 979.585 159.376C979.787 159.376 980.086 159.301 980.481 159.152L981.089 161.616ZM986.24 153.12C987.2 153.12 988.032 153.317 988.736 153.712C989.44 154.107 989.979 154.672 990.352 155.408C990.725 156.133 990.912 156.987 990.912 157.968C990.912 158.171 990.907 158.325 990.896 158.432H985.2C985.317 158.773 985.499 159.035 985.744 159.216C986 159.387 986.304 159.472 986.656 159.472C987.285 159.472 987.877 159.211 988.432 158.688L990.304 160.528C989.835 161.051 989.264 161.451 988.592 161.728C987.931 161.995 987.179 162.128 986.336 162.128C985.355 162.128 984.501 161.947 983.776 161.584C983.061 161.211 982.512 160.688 982.128 160.016C981.755 159.344 981.568 158.56 981.568 157.664C981.568 156.747 981.76 155.947 982.144 155.264C982.528 154.581 983.072 154.053 983.776 153.68C984.491 153.307 985.312 153.12 986.24 153.12ZM987.296 156.768C987.317 156.405 987.227 156.107 987.024 155.872C986.832 155.637 986.581 155.52 986.272 155.52C985.973 155.52 985.723 155.632 985.52 155.856C985.328 156.08 985.195 156.384 985.12 156.768H987.296Z" fill="white"/>
<rect y="48" width="1427" height="4" fill="white"/>
<circle cx="714" cy="50" r="50" fill="white"/>
<path d="M701.269 46.7158C699.888 48.3392 701.041 50.8362 703.173 50.8362H709.822L701.272 60.8825C699.89 62.5058 701.044 65.0028 703.176 65.0028H724.831C726.295 65.0028 727.298 63.8248 727.334 62.5612V62.4172C727.319 61.8868 727.131 61.3487 726.735 60.8825L718.185 50.8362H724.828C726.96 50.8362 728.113 48.3393 726.732 46.7158L716.222 34.3662C715.057 32.9977 712.944 32.9977 711.78 34.3662L701.269 46.7158Z" fill="#BF1F30"/>
</svg>
