<svg width="51" height="51" viewBox="0 0 51 51" fill="none" xmlns="http://www.w3.org/2000/svg">
<path d="M8.625 0.5C4.13768 0.5 0.5 4.13768 0.5 8.625V37.375C0.5 41.8623 4.13768 45.5 8.625 45.5H20.9128L21.8022 41.942C22.2072 40.322 23.045 38.8428 24.2257 37.662L27.6375 34.25H21.1252C20.0895 34.25 19.2502 33.4105 19.2502 32.375C19.2502 31.3395 20.0895 30.5 21.1252 30.5H31.3875L38.9818 22.906C40.7665 21.1213 43.168 20.3295 45.5 20.5305V8.625C45.5 4.13768 41.8623 0.5 37.375 0.5H8.625ZM14.875 13.625C14.875 15.0057 13.7557 16.125 12.375 16.125C10.9943 16.125 9.875 15.0057 9.875 13.625C9.875 12.2443 10.9943 11.125 12.375 11.125C13.7557 11.125 14.875 12.2443 14.875 13.625ZM19.25 13.625C19.25 12.5895 20.0895 11.75 21.125 11.75H34.875C35.9105 11.75 36.75 12.5895 36.75 13.625C36.75 14.6605 35.9105 15.5 34.875 15.5H21.125C20.0895 15.5 19.25 14.6605 19.25 13.625ZM19.2502 23C19.2502 21.9645 20.0895 21.125 21.1252 21.125H34.8748C35.9105 21.125 36.7498 21.9645 36.7498 23C36.7498 24.0355 35.9105 24.875 34.8748 24.875H21.1252C20.0895 24.875 19.2502 24.0355 19.2502 23ZM12.375 20.5C13.7557 20.5 14.875 21.6192 14.875 23C14.875 24.3808 13.7557 25.5 12.375 25.5C10.9943 25.5 9.875 24.3808 9.875 23C9.875 21.6192 10.9943 20.5 12.375 20.5ZM14.875 32.375C14.875 33.7557 13.7557 34.875 12.375 34.875C10.9943 34.875 9.875 33.7557 9.875 32.375C9.875 30.9942 10.9943 29.875 12.375 29.875C13.7557 29.875 14.875 30.9942 14.875 32.375ZM40.7497 24.6738L25.9935 39.4297C25.1333 40.29 24.523 41.368 24.2278 42.5485L23.0835 47.1253C22.586 49.1155 24.389 50.9185 26.3792 50.4207L30.956 49.2765C32.1362 48.9815 33.2142 48.3713 34.0747 47.5107L48.8307 32.7547C51.0623 30.5233 51.0623 26.9053 48.8307 24.6738C46.5993 22.442 42.9812 22.442 40.7497 24.6738Z" fill="white"/>
</svg>
