<svg width="44" height="50" viewBox="0 0 44 50" fill="none" xmlns="http://www.w3.org/2000/svg">
<path d="M37.392 37.2047L34.4245 40.1395C32.2372 42.286 29.3995 45.046 25.9097 48.4197C23.7292 50.5282 20.2697 50.528 18.0895 48.4192L9.36164 39.9295C8.26474 38.8525 7.34657 37.9442 6.60697 37.2047C-1.89405 28.7037 -1.89405 14.9207 6.60697 6.41971C15.108 -2.08131 28.891 -2.08131 37.392 6.41971C45.893 14.9207 45.893 28.7037 37.392 37.2047ZM28.25 22.499C28.25 19.0469 25.4515 16.2484 21.9995 16.2484C18.5475 16.2484 15.7489 19.0469 15.7489 22.499C15.7489 25.951 18.5475 28.7495 21.9995 28.7495C25.4515 28.7495 28.25 25.951 28.25 22.499Z" fill="white"/>
</svg>
