<svg width="60" height="60" viewBox="0 0 60 60" fill="none" xmlns="http://www.w3.org/2000/svg">
<path d="M43.751 30.0008C51.3447 30.0008 57.501 36.1568 57.501 43.7508C57.501 51.3445 51.3447 57.5008 43.751 57.5008C36.157 57.5008 30.001 51.3445 30.001 43.7508C30.001 36.1568 36.157 30.0008 43.751 30.0008ZM30.0565 34.999C28.4387 37.525 27.501 40.5283 27.501 43.7508C27.501 47.8265 29.0015 51.5518 31.4802 54.4045C29.4915 54.8048 27.3292 55.0033 25.001 55.0033C16.4485 55.0033 10.1411 52.323 6.28567 46.912C5.45577 45.7473 5.00977 44.3528 5.00977 42.9225V40.6228C5.00977 37.5175 7.52689 35.0005 10.6319 35.0005L30.0565 34.999ZM37.1347 42.8668C36.6467 42.3785 35.8552 42.3785 35.367 42.8668C34.8787 43.355 34.8787 44.1465 35.367 44.6345L40.367 49.6345C40.8552 50.1228 41.6467 50.1228 42.1347 49.6345L52.1347 39.6345C52.623 39.1465 52.623 38.355 52.1347 37.8668C51.6467 37.3785 50.8552 37.3785 50.367 37.8668L41.251 46.9828L37.1347 42.8668ZM25.001 5.01221C31.9045 5.01221 37.501 10.6087 37.501 17.5122C37.501 24.4158 31.9045 30.0123 25.001 30.0123C18.0973 30.0123 12.5009 24.4158 12.5009 17.5122C12.5009 10.6087 18.0973 5.01221 25.001 5.01221Z" fill="white"/>
</svg>
